<svg width="70" height="30" viewBox="0 0 70 30" fill="none" xmlns="http://www.w3.org/2000/svg">
<path d="M9.592 0.344V0.983999C8.86667 1.00533 8.312 1.09067 7.928 1.24C7.56533 1.368 7.32 1.624 7.192 2.008C7.064 2.37067 7 2.94666 7 3.736V19.864C7 20.5467 7.05333 21.0693 7.16 21.432C7.288 21.7733 7.512 21.9973 7.832 22.104C8.152 22.2107 8.61067 22.264 9.208 22.264H11.032C11.864 22.264 12.5893 22.1147 13.208 21.816C13.848 21.5173 14.4027 21.08 14.872 20.504C15.3413 19.928 15.7253 19.224 16.024 18.392C16.3227 17.5387 16.536 16.5787 16.664 15.512H17.4C17.336 16.216 17.304 17.1333 17.304 18.264C17.304 18.7333 17.3147 19.4053 17.336 20.28C17.3787 21.1547 17.4427 22.0613 17.528 23C16.44 22.9573 15.2133 22.936 13.848 22.936C12.4827 22.9147 11.2667 22.904 10.2 22.904C9.688 22.904 9.03733 22.904 8.248 22.904C7.45867 22.904 6.59467 22.9147 5.656 22.936C4.73867 22.936 3.8 22.9467 2.84 22.968C1.90133 22.968 1.00533 22.9787 0.152 23V22.36C0.856 22.3173 1.37867 22.232 1.72 22.104C2.08267 21.976 2.31733 21.72 2.424 21.336C2.552 20.952 2.616 20.376 2.616 19.608V3.736C2.616 2.94666 2.552 2.37067 2.424 2.008C2.31733 1.624 2.08267 1.368 1.72 1.24C1.37867 1.09067 0.856 1.00533 0.152 0.983999V0.344C0.685333 0.365333 1.368 0.386666 2.2 0.407999C3.032 0.429332 3.928 0.439999 4.888 0.439999C5.76267 0.439999 6.62667 0.429332 7.48 0.407999C8.33333 0.386666 9.03733 0.365333 9.592 0.344ZM27.2413 6.008C28.7133 6.008 30.0146 6.30667 31.1453 6.904C32.2973 7.48 33.2039 8.408 33.8653 9.688C34.5479 10.968 34.8893 12.6533 34.8893 14.744C34.8893 16.8347 34.5479 18.52 33.8653 19.8C33.2039 21.08 32.2973 22.008 31.1453 22.584C30.0146 23.16 28.7133 23.448 27.2413 23.448C25.7693 23.448 24.4573 23.16 23.3053 22.584C22.1533 22.008 21.2466 21.08 20.5853 19.8C19.9239 18.52 19.5933 16.8347 19.5933 14.744C19.5933 12.6533 19.9239 10.968 20.5853 9.688C21.2466 8.408 22.1533 7.48 23.3053 6.904C24.4573 6.30667 25.7693 6.008 27.2413 6.008ZM27.2413 6.648C26.2386 6.648 25.4173 7.288 24.7773 8.568C24.1586 9.82667 23.8493 11.8853 23.8493 14.744C23.8493 17.6027 24.1586 19.6613 24.7773 20.92C25.4173 22.1787 26.2386 22.808 27.2413 22.808C28.2226 22.808 29.0333 22.1787 29.6733 20.92C30.3133 19.6613 30.6333 17.6027 30.6333 14.744C30.6333 11.8853 30.3133 9.82667 29.6733 8.568C29.0333 7.288 28.2226 6.648 27.2413 6.648ZM43.0683 29.016C41.8096 29.016 40.6683 28.8987 39.6443 28.664C38.6203 28.4293 37.8096 28.0773 37.2122 27.608C36.6149 27.16 36.3163 26.584 36.3163 25.88C36.3163 25.1973 36.6149 24.5893 37.2122 24.056C37.8096 23.5227 38.6843 23.1173 39.8363 22.84L40.0603 23.352C39.6549 23.5867 39.3456 23.9067 39.1323 24.312C38.9189 24.7173 38.8123 25.144 38.8123 25.592C38.8123 26.5093 39.2283 27.2133 40.0603 27.704C40.9136 28.216 42.0443 28.472 43.4523 28.472C44.4123 28.472 45.2976 28.344 46.1083 28.088C46.9189 27.832 47.5696 27.4373 48.0603 26.904C48.5509 26.3707 48.7963 25.7093 48.7963 24.92C48.7963 24.2587 48.5509 23.704 48.0603 23.256C47.5909 22.808 46.6416 22.584 45.2123 22.584H43.1003C42.3109 22.584 41.5856 22.4987 40.9243 22.328C40.2843 22.1573 39.7723 21.88 39.3883 21.496C39.0043 21.112 38.8123 20.5787 38.8123 19.896C38.8123 19.064 39.1536 18.3173 39.8363 17.656C40.5189 16.9733 41.5856 16.312 43.0363 15.672L43.3883 15.96C42.8549 16.2373 42.3749 16.536 41.9483 16.856C41.5429 17.176 41.3403 17.5813 41.3403 18.072C41.3403 18.7547 41.8096 19.096 42.7483 19.096H46.3643C47.4736 19.096 48.4549 19.2347 49.3083 19.512C50.1829 19.7893 50.8763 20.2267 51.3883 20.824C51.9003 21.4213 52.1562 22.2107 52.1562 23.192C52.1562 24.216 51.8256 25.1653 51.1643 26.04C50.5029 26.936 49.5003 27.6507 48.1563 28.184C46.8336 28.7387 45.1376 29.016 43.0683 29.016ZM43.3563 16.184C42.2043 16.184 41.1589 16.0133 40.2203 15.672C39.3029 15.3093 38.5776 14.7547 38.0443 14.008C37.5109 13.24 37.2443 12.2693 37.2443 11.096C37.2443 9.92267 37.5109 8.96267 38.0443 8.216C38.5776 7.46933 39.3029 6.91467 40.2203 6.552C41.1589 6.18933 42.2043 6.008 43.3563 6.008C44.5296 6.008 45.5749 6.18933 46.4923 6.552C47.4096 6.91467 48.1349 7.46933 48.6683 8.216C49.2016 8.96267 49.4683 9.92267 49.4683 11.096C49.4683 12.2693 49.2016 13.24 48.6683 14.008C48.1349 14.7547 47.4096 15.3093 46.4923 15.672C45.5749 16.0133 44.5296 16.184 43.3563 16.184ZM43.3563 15.608C43.9963 15.608 44.4976 15.288 44.8603 14.648C45.2443 13.9867 45.4363 12.8027 45.4363 11.096C45.4363 9.38933 45.2443 8.216 44.8603 7.576C44.4976 6.91467 43.9963 6.584 43.3563 6.584C42.7163 6.584 42.2043 6.91467 41.8203 7.576C41.4576 8.216 41.2763 9.38933 41.2763 11.096C41.2763 12.8027 41.4576 13.9867 41.8203 14.648C42.2043 15.288 42.7163 15.608 43.3563 15.608ZM48.1883 8.728L47.5803 8.504C47.9003 7.71467 48.4229 7.05333 49.1483 6.52C49.8736 5.96533 50.6416 5.688 51.4523 5.688C52.0709 5.688 52.5509 5.85867 52.8923 6.2C53.2549 6.54133 53.4363 7.02133 53.4363 7.64C53.4363 8.28 53.2656 8.74933 52.9243 9.048C52.5829 9.34667 52.2096 9.496 51.8043 9.496C51.4416 9.496 51.1109 9.37867 50.8123 9.144C50.5136 8.888 50.3429 8.504 50.3003 7.992C50.2576 7.45867 50.4283 6.79733 50.8123 6.008L51.1323 6.136C50.3003 6.456 49.6816 6.808 49.2763 7.192C48.8709 7.576 48.5083 8.088 48.1883 8.728ZM62.1163 6.008C63.5883 6.008 64.8896 6.30667 66.0203 6.904C67.1723 7.48 68.0789 8.408 68.7403 9.688C69.4229 10.968 69.7643 12.6533 69.7643 14.744C69.7643 16.8347 69.4229 18.52 68.7403 19.8C68.0789 21.08 67.1723 22.008 66.0203 22.584C64.8896 23.16 63.5883 23.448 62.1163 23.448C60.6443 23.448 59.3323 23.16 58.1803 22.584C57.0283 22.008 56.1216 21.08 55.4603 19.8C54.7989 18.52 54.4683 16.8347 54.4683 14.744C54.4683 12.6533 54.7989 10.968 55.4603 9.688C56.1216 8.408 57.0283 7.48 58.1803 6.904C59.3323 6.30667 60.6443 6.008 62.1163 6.008ZM62.1163 6.648C61.1136 6.648 60.2923 7.288 59.6523 8.568C59.0336 9.82667 58.7243 11.8853 58.7243 14.744C58.7243 17.6027 59.0336 19.6613 59.6523 20.92C60.2923 22.1787 61.1136 22.808 62.1163 22.808C63.0976 22.808 63.9083 22.1787 64.5483 20.92C65.1883 19.6613 65.5083 17.6027 65.5083 14.744C65.5083 11.8853 65.1883 9.82667 64.5483 8.568C63.9083 7.288 63.0976 6.648 62.1163 6.648Z" fill="black"/>
</svg>
