<?xml version="1.0" encoding="utf-8"?>
<!-- Generator: Adobe Illustrator 26.4.1, SVG Export Plug-In . SVG Version: 6.00 Build 0)  -->
<svg version="1.1" id="Layer_1" xmlns="http://www.w3.org/2000/svg" xmlns:xlink="http://www.w3.org/1999/xlink" x="0px" y="0px"
	 viewBox="0 0 2450.1 1080" style="enable-background:new 0 0 2450.1 1080;" xml:space="preserve">
<style type="text/css">
	.st0{fill:#0098FD;}
	.st1{font-family:'Metropolis-Bold';}
	.st2{font-size:118.5651px;}
</style>
<g>
	<g>
		<path class="st0" d="M444,554.2c0-157.1,120.9-272.9,284.5-272.9c69.2,0,132.5,20,179.4,59.9c10.8,9.2,11.4,25.7,1.3,35.7
			l-2.4,2.4c-8.8,8.7-22.9,9.4-32.4,1.5c-41-34-89.7-48.9-144.4-48.9c-131,0-229.4,95-229.4,222.3c0,127.2,98.4,222.3,229.4,222.3
			c54.7,0,103.4-14.9,144.4-49.5c9.5-8,23.7-7.4,32.5,1.4l2.3,2.2c10.1,10,9.5,26.5-1.3,35.7c-47,40.1-110.3,60.7-180.3,60.7
			C564.9,827,444,711.3,444,554.2z"/>
	</g>
	<g>
		<path class="st0" d="M842.7,440.2v240c0,9.5-7.7,17.3-17.3,17.3h-16.5c-9.5,0-17.3-7.7-17.3-17.3v-83.1c0-9.5-7.7-17.3-17.3-17.3
			H667c-9.5,0-17.3,7.7-17.3,17.3v83.2c0,9.5-7.7,17.3-17.3,17.3h-16.5c-9.5,0-17.3-7.7-17.3-17.3v-240c0-9.5,7.7-17.3,17.3-17.3
			h16.5c9.5,0,17.3,7.7,17.3,17.3v78.8c0,9.5,7.7,17.3,17.3,17.3h107.5c9.5,0,17.3-7.7,17.3-17.3v-78.8c0-9.5,7.7-17.3,17.3-17.3
			h16.5C835,423,842.7,430.7,842.7,440.2z"/>
	</g>
	<g>
		<path class="st0" d="M871.5,654.1l2-4.5c4.6-10.3,17-14.4,26.9-9c20.8,11.3,47.2,18.6,72.9,18.6c42.8,0,60.8-15.3,60.8-35.7
			c0-59.2-163.2-20.4-163.2-122.4c0-44.3,35.3-82,110.6-82c26.1,0,53.2,5.4,75.2,15.5c9.3,4.3,13.5,15.2,9.7,24.7l-1.8,4.3
			c-4,10-15.5,14.8-25.4,10.5c-19.6-8.5-39.8-12.7-58.2-12.7c-42.4,0-59.6,16.5-59.6,37.3c0,58.4,162.8,20.4,162.8,121.2
			c0,43.9-35.7,81.6-111,81.6c-34.9,0-69.8-8.9-93.8-22.8C870.9,673.7,867.4,663.1,871.5,654.1z"/>
	</g>
</g>
<text transform="matrix(1 0 0 1 1180.4287 464.6621)"><tspan x="0" y="0" class="st1 st2">Cilla</tspan><tspan x="0" y="142.3" class="st1 st2">Healthcare</tspan><tspan x="0" y="284.6" class="st1 st2">Services</tspan></text>
</svg>
