<?xml version="1.0" encoding="utf-8"?>
<!-- Generator: Adobe Illustrator 26.4.1, SVG Export Plug-In . SVG Version: 6.00 Build 0)  -->
<svg version="1.1" id="Layer_1" xmlns="http://www.w3.org/2000/svg" xmlns:xlink="http://www.w3.org/1999/xlink" x="0px" y="0px"
	 viewBox="0 0 1459.5 1080" style="enable-background:new 0 0 1459.5 1080;" xml:space="preserve">
<style type="text/css">
	.st0{fill:#0098FD;}
</style>
<g>
	<g>
		<path class="st0" d="M222,508.3c0-271.8,209.1-472.1,492.1-472.1c119.7,0,229.2,34.6,310.3,103.6c18.7,15.9,19.7,44.5,2.2,61.8
			l-4.2,4.2c-15.2,15-39.6,16.3-56,2.6c-70.9-58.8-155.2-84.6-249.8-84.6c-226.6,0-396.8,164.3-396.8,384.5
			c0,220,170.2,384.5,396.8,384.5c94.6,0,178.9-25.8,249.8-85.6c16.4-13.8,41-12.8,56.2,2.4l4,3.8c17.5,17.3,16.4,45.8-2.2,61.8
			c-81.3,69.4-190.8,105-311.9,105C431.2,980.2,222,780,222,508.3z"/>
	</g>
	<g>
		<path class="st0" d="M911.7,311.1v415.2c0,16.4-13.3,29.9-29.9,29.9h-28.5c-16.4,0-29.9-13.3-29.9-29.9V582.5
			c0-16.4-13.3-29.9-29.9-29.9H607.8c-16.4,0-29.9,13.3-29.9,29.9v143.9c0,16.4-13.3,29.9-29.9,29.9h-28.5
			c-16.4,0-29.9-13.3-29.9-29.9V311.2c0-16.4,13.3-29.9,29.9-29.9h28.5c16.4,0,29.9,13.3,29.9,29.9v136.3
			c0,16.4,13.3,29.9,29.9,29.9h186c16.4,0,29.9-13.3,29.9-29.9V311.2c0-16.4,13.3-29.9,29.9-29.9h28.5
			C898.4,281.3,911.7,294.6,911.7,311.1z"/>
	</g>
	<g>
		<path class="st0" d="M961.6,681.1l3.5-7.8c8-17.8,29.4-24.9,46.5-15.6c36,19.5,81.6,32.2,126.1,32.2c74,0,105.2-26.5,105.2-61.8
			c0-102.4-282.3-35.3-282.3-211.7c0-76.6,61.1-141.8,191.3-141.8c45.1,0,92,9.3,130.1,26.8c16.1,7.4,23.4,26.3,16.8,42.7l-3.1,7.4
			c-6.9,17.3-26.8,25.6-43.9,18.2c-33.9-14.7-68.8-22-100.7-22c-73.3,0-103.1,28.5-103.1,64.5c0,101,281.6,35.3,281.6,209.7
			c0,75.9-61.8,141.2-192,141.2c-60.4,0-120.7-15.4-162.3-39.4C960.5,715,954.5,696.6,961.6,681.1z"/>
	</g>
</g>
</svg>
