<?xml version="1.0" encoding="utf-8"?>
<!-- Generator: Adobe Illustrator 26.4.1, SVG Export Plug-In . SVG Version: 6.00 Build 0)  -->
<svg version="1.1" id="Layer_1" xmlns="http://www.w3.org/2000/svg" xmlns:xlink="http://www.w3.org/1999/xlink" x="0px" y="0px"
	 viewBox="0 0 1080 1080" style="enable-background:new 0 0 1080 1080;" xml:space="preserve">
<style type="text/css">
	.st0{fill:#1C2230;}
	.st1{fill:#0098FD;}
</style>
<g id="yUCZvR.tif">
	
		<image style="overflow:visible;enable-background:new    ;" width="631" height="180" id="Layer_0" xlink:href="4F699D6248C87BAE.png"  transform="matrix(0.9981 0 0 0.9981 238.0784 1703.6838)">
	</image>
</g>
<g>
	<path class="st0" d="M81.4,790.8c0-39.6,30.4-68,71.4-68c22.7,0,41.7,8.3,54.1,23.3l-19.5,18c-8.8-10.1-19.9-15.4-33.1-15.4
		c-24.6,0-42.1,17.3-42.1,42.1c0,24.8,17.5,42.1,42.1,42.1c13.1,0,24.2-5.3,33.1-15.6l19.5,18c-12.4,15.2-31.4,23.5-54.3,23.5
		C111.8,858.8,81.4,830.4,81.4,790.8z"/>
	<path class="st0" d="M293,725h30.4v131.5H293V725z"/>
	<path class="st0" d="M420.4,725h30.4v106.7h65.9v24.8h-96.4V725z"/>
	<path class="st0" d="M599.6,725H630v106.7h65.9v24.8h-96.4V725z"/>
	<path class="st0" d="M866.5,828.3h-61l-11.6,28.2h-31.2L821.2,725h30.1l58.8,131.5h-31.9L866.5,828.3z M856.9,805.2L836,754.9
		l-20.8,50.3H856.9z"/>
</g>
<g>
	<path class="st0" d="M129,893.2v40.2h-9.3V917h-18.3v16.5h-9.3v-40.2h9.3v15.9h18.3v-15.9H129z"/>
	<path class="st0" d="M175.5,926v7.5h-31.2v-40.2h30.4v7.5h-21.2v8.7h18.7v7.2h-18.7v9.3H175.5z"/>
	<path class="st0" d="M215.2,924.9h-18.7l-3.6,8.6h-9.5l17.9-40.2h9.2l18,40.2h-9.8L215.2,924.9z M212.2,917.8l-6.4-15.4l-6.4,15.4
		H212.2z"/>
	<path class="st0" d="M238.5,893.2h9.3v32.7H268v7.6h-29.5V893.2z"/>
	<path class="st0" d="M283.5,900.8h-12.9v-7.6h35.1v7.6h-12.9v32.7h-9.3V900.8z"/>
	<path class="st0" d="M353.4,893.2v40.2h-9.3V917h-18.3v16.5h-9.3v-40.2h9.3v15.9h18.3v-15.9H353.4z"/>
	<path class="st0" d="M366.2,913.4c0-12.1,9.3-20.8,21.8-20.8c7,0,12.8,2.5,16.6,7.1l-6,5.5c-2.7-3.1-6.1-4.7-10.1-4.7
		c-7.5,0-12.9,5.3-12.9,12.9c0,7.6,5.3,12.9,12.9,12.9c4,0,7.4-1.6,10.1-4.8l6,5.5c-3.8,4.7-9.6,7.2-16.6,7.2
		C375.5,934.2,366.2,925.5,366.2,913.4z"/>
	<path class="st0" d="M442.3,924.9h-18.7l-3.6,8.6h-9.5l17.9-40.2h9.2l18,40.2h-9.8L442.3,924.9z M439.4,917.8l-6.4-15.4l-6.4,15.4
		H439.4z"/>
	<path class="st0" d="M491.2,933.5l-7.8-11.2H483h-8.1v11.2h-9.3v-40.2H483c10.8,0,17.5,5.6,17.5,14.6c0,6-3,10.5-8.3,12.7l9,12.9
		H491.2z M482.5,900.8h-7.6v14h7.6c5.7,0,8.6-2.6,8.6-7C491.1,903.4,488.2,900.8,482.5,900.8z"/>
	<path class="st0" d="M544.8,926v7.5h-31.2v-40.2H544v7.5h-21.2v8.7h18.7v7.2h-18.7v9.3H544.8z"/>
	<path class="st0" d="M576.8,929.5l3.2-7c3.4,2.5,8.5,4.2,13.3,4.2c5.5,0,7.8-1.8,7.8-4.3c0-7.5-23.4-2.4-23.4-17.3
		c0-6.8,5.5-12.5,17-12.5c5.1,0,10.2,1.2,14,3.6l-2.9,7.1c-3.7-2.1-7.6-3.2-11.2-3.2c-5.5,0-7.6,2.1-7.6,4.6
		c0,7.4,23.4,2.3,23.4,17.1c0,6.7-5.6,12.5-17.1,12.5C586.8,934.2,580.4,932.3,576.8,929.5z"/>
	<path class="st0" d="M653.6,926v7.5h-31.2v-40.2h30.4v7.5h-21.2v8.7h18.7v7.2h-18.7v9.3H653.6z"/>
	<path class="st0" d="M692.4,933.5l-7.8-11.2h-0.5H676v11.2h-9.3v-40.2h17.4c10.8,0,17.5,5.6,17.5,14.6c0,6-3,10.5-8.3,12.7l9,12.9
		H692.4z M683.6,900.8H676v14h7.6c5.7,0,8.6-2.6,8.6-7C692.2,903.4,689.3,900.8,683.6,900.8z"/>
	<path class="st0" d="M753.4,893.2L736,933.5h-9.2l-17.4-40.2h10.1l12.2,28.7l12.4-28.7H753.4z"/>
	<path class="st0" d="M762.5,893.2h9.3v40.2h-9.3V893.2z"/>
	<path class="st0" d="M784.6,913.4c0-12.1,9.3-20.8,21.8-20.8c7,0,12.8,2.5,16.6,7.1l-6,5.5c-2.7-3.1-6.1-4.7-10.1-4.7
		c-7.5,0-12.9,5.3-12.9,12.9c0,7.6,5.3,12.9,12.9,12.9c4,0,7.4-1.6,10.1-4.8l6,5.5c-3.8,4.7-9.6,7.2-16.6,7.2
		C793.9,934.2,784.6,925.5,784.6,913.4z"/>
	<path class="st0" d="M866.2,926v7.5H835v-40.2h30.4v7.5h-21.2v8.7H863v7.2h-18.7v9.3H866.2z"/>
	<path class="st0" d="M876.2,929.5l3.2-7c3.4,2.5,8.5,4.2,13.3,4.2c5.5,0,7.8-1.8,7.8-4.3c0-7.5-23.4-2.4-23.4-17.3
		c0-6.8,5.5-12.5,17-12.5c5.1,0,10.2,1.2,14,3.6l-2.9,7.1c-3.7-2.1-7.6-3.2-11.2-3.2c-5.5,0-7.6,2.1-7.6,4.6
		c0,7.4,23.4,2.3,23.4,17.1c0,6.7-5.6,12.5-17.1,12.5C886.2,934.2,879.8,932.3,876.2,929.5z"/>
</g>
<g>
	<g>
		<path class="st1" d="M199.2,397.1c0-157.1,120.9-272.9,284.5-272.9c69.2,0,132.5,20,179.4,59.9c10.8,9.2,11.4,25.7,1.3,35.7
			l-2.4,2.4c-8.8,8.7-22.9,9.4-32.4,1.5c-41-34-89.7-48.9-144.4-48.9c-131,0-229.4,95-229.4,222.3c0,127.2,98.4,222.3,229.4,222.3
			c54.7,0,103.4-14.9,144.4-49.5c9.5-8,23.7-7.4,32.5,1.4l2.3,2.2c10.1,10,9.5,26.5-1.3,35.7c-47,40.1-110.3,60.7-180.3,60.7
			C320.1,669.9,199.2,554.2,199.2,397.1z"/>
	</g>
	<g>
		<path class="st1" d="M597.9,283.1v240c0,9.5-7.7,17.3-17.3,17.3h-16.5c-9.5,0-17.3-7.7-17.3-17.3V440c0-9.5-7.7-17.3-17.3-17.3
			H422.2c-9.5,0-17.3,7.7-17.3,17.3v83.2c0,9.5-7.7,17.3-17.3,17.3h-16.5c-9.5,0-17.3-7.7-17.3-17.3v-240c0-9.5,7.7-17.3,17.3-17.3
			h16.5c9.5,0,17.3,7.7,17.3,17.3V362c0,9.5,7.7,17.3,17.3,17.3h107.5c9.5,0,17.3-7.7,17.3-17.3v-78.8c0-9.5,7.7-17.3,17.3-17.3
			h16.5C590.2,265.9,597.9,273.6,597.9,283.1z"/>
	</g>
	<g>
		<path class="st1" d="M626.7,497l2-4.5c4.6-10.3,17-14.4,26.9-9c20.8,11.3,47.2,18.6,72.9,18.6c42.8,0,60.8-15.3,60.8-35.7
			c0-59.2-163.2-20.4-163.2-122.4c0-44.3,35.3-82,110.6-82c26.1,0,53.2,5.4,75.2,15.5c9.3,4.3,13.5,15.2,9.7,24.7l-1.8,4.3
			c-4,10-15.5,14.8-25.4,10.5c-19.6-8.5-39.8-12.7-58.2-12.7c-42.4,0-59.6,16.5-59.6,37.3c0,58.4,162.8,20.4,162.8,121.2
			c0,43.9-35.7,81.6-111,81.6c-34.9,0-69.8-8.9-93.8-22.8C626.1,516.6,622.6,506,626.7,497z"/>
	</g>
</g>
</svg>
