<?xml version="1.0" encoding="utf-8"?>
<!-- Generator: Adobe Illustrator 26.4.1, SVG Export Plug-In . SVG Version: 6.00 Build 0)  -->
<svg version="1.1" id="Layer_1" xmlns="http://www.w3.org/2000/svg" xmlns:xlink="http://www.w3.org/1999/xlink" x="0px" y="0px"
	 viewBox="0 0 1080 1080" style="enable-background:new 0 0 1080 1080;" xml:space="preserve">
<style type="text/css">
	.st0{fill:#1C2230;}
	.st1{font-family:'Montserrat-Bold';}
	.st2{font-size:176.4166px;}
	.st3{letter-spacing:61;}
	.st4{font-size:54.0078px;}
	.st5{letter-spacing:5;}
	.st6{fill:#0098FD;}
</style>
<text transform="matrix(1 0 0 1 130.2334 823)" class="st0 st1 st2 st3">Cilla</text>
<text transform="matrix(1 0 0 1 142.7392 895.2871)" class="st0 st1 st4 st5">Healthcare Services</text>
<g>
	<g>
		<path class="st6" d="M247.8,391.5c0-147.6,113.6-256.3,267.2-256.3c65,0,124.5,18.8,168.5,56.3c10.2,8.7,10.7,24.2,1.2,33.6
			l-2.2,2.2c-8.3,8.2-21.5,8.8-30.4,1.4c-38.5-32-84.3-46-135.6-46c-123,0-215.5,89.3-215.5,208.8c0,119.5,92.5,208.8,215.5,208.8
			c51.4,0,97.1-14,135.6-46.5c9-7.5,22.2-6.9,30.6,1.3l2.1,2.1c9.5,9.4,8.9,24.9-1.2,33.5c-44.1,37.7-103.6,57-169.3,57
			C361.4,647.8,247.8,539,247.8,391.5z"/>
	</g>
	<g>
		<path class="st6" d="M622.2,284.5v225.5c0,8.9-7.3,16.2-16.2,16.2h-15.5c-8.9,0-16.2-7.3-16.2-16.2v-78.1
			c0-8.9-7.3-16.2-16.2-16.2h-101c-8.9,0-16.2,7.3-16.2,16.2v78.1c0,8.9-7.3,16.2-16.2,16.2h-15.5c-8.9,0-16.2-7.3-16.2-16.2V284.5
			c0-8.9,7.3-16.2,16.2-16.2h15.5c8.9,0,16.2,7.3,16.2,16.2v74.1c0,8.9,7.3,16.2,16.2,16.2h101c8.9,0,16.2-7.3,16.2-16.2v-74.1
			c0-8.9,7.3-16.2,16.2-16.2H606C615,268.3,622.2,275.5,622.2,284.5z"/>
	</g>
	<g>
		<path class="st6" d="M649.3,485.3l1.9-4.2c4.3-9.7,16-13.5,25.3-8.5c19.6,10.6,44.3,17.4,68.5,17.4c40.2,0,57.1-14.4,57.1-33.5
			c0-55.6-153.2-19.2-153.2-114.9c0-41.6,33.2-77,103.9-77c24.5,0,50,5.1,70.7,14.5c8.8,4,12.7,14.3,9.1,23.2l-1.7,4.1
			c-3.8,9.4-14.6,13.9-23.8,9.8c-18.4-8-37.4-11.9-54.7-11.9c-39.8,0-56,15.5-56,35c0,54.9,152.9,19.2,152.9,113.8
			c0,41.3-33.5,76.6-104.3,76.6c-32.8,0-65.6-8.4-88.1-21.4C648.7,503.7,645.5,493.8,649.3,485.3z"/>
	</g>
</g>
<g id="yUCZvR.tif">
	
		<image style="overflow:visible;" width="630" height="179" id="Layer_0" xlink:href="4F699D6248C87BAE.png"  transform="matrix(1 0 0 1 237.9843 1704.0144)">
	</image>
</g>
</svg>
